<?xml version="1.0" encoding="UTF-8"?><svg id="_Слой_1" xmlns="http://www.w3.org/2000/svg" width="11.54" height="11.54" viewBox="0 0 11.54 11.54"><defs><style>.cls-1{fill:#000;fill-rule:evenodd;stroke-width:0px;}</style></defs><g id="Page-1"><g id="Dribbble-Light-Preview"><g id="icons"><path id="profile-_1335_" class="cls-1" d="M5.77,5.77c-1.27,0-2.31-1.04-2.31-2.31s1.04-2.31,2.31-2.31,2.31,1.04,2.31,2.31-1.04,2.31-2.31,2.31M7.94,6.16c.79-.63,1.29-1.61,1.29-2.7,0-1.91-1.55-3.46-3.46-3.46s-3.46,1.55-3.46,3.46c0,1.09.51,2.06,1.29,2.7-2.11.79-3.6,2.75-3.6,5.38h1.15c0-2.89,2.07-4.62,4.62-4.62s4.62,1.73,4.62,4.62h1.15c0-2.63-1.49-4.59-3.6-5.38"/></g></g></g></svg>